<svg width="17" height="16" viewBox="0 0 17 16" fill="none" xmlns="http://www.w3.org/2000/svg">
<path fill-rule="evenodd" clip-rule="evenodd" d="M0.746704 7.20902C0.746704 3.22775 3.95801 -6.10352e-05 7.91937 -6.10352e-05C11.8807 -6.10352e-05 15.092 3.22775 15.092 7.20902C15.092 11.1903 11.8807 14.4181 7.91937 14.4181C3.95801 14.4181 0.746704 11.1903 0.746704 7.20902ZM7.91937 1.23578C4.63705 1.23578 1.9763 3.91035 1.9763 7.20902C1.9763 10.5077 4.63705 13.1823 7.91937 13.1823C11.2017 13.1823 13.8624 10.5077 13.8624 7.20902C13.8624 3.91035 11.2017 1.23578 7.91937 1.23578Z" fill="#4C302C"/>
<path fill-rule="evenodd" clip-rule="evenodd" d="M12.1719 11.4833C12.3771 11.277 12.7098 11.277 12.915 11.4833L15.9627 14.5465C16.168 14.7526 16.168 15.087 15.9627 15.2933C15.7575 15.4996 15.4248 15.4996 15.2196 15.2933L12.1719 12.2301C11.9666 12.0239 11.9666 11.6895 12.1719 11.4833Z" fill="#4C302C"/>
</svg>
